<svg xmlns="http://www.w3.org/2000/svg" viewBox="0 0 40 40"><defs><style>.cls-1{opacity:0;}.cls-2{fill:#fff;}.cls-3,.cls-4{fill:#0992ac;}.cls-4{opacity:0.6;}</style></defs><g id="Layer_2" data-name="Layer 2"><g id="Layer_2-2" data-name="Layer 2"><g class="cls-1"><rect class="cls-2" width="40" height="40"/></g><path class="cls-3" d="M39.77,33.94l-.05,0a13.92,13.92,0,0,0-3.63-2.52l-.68-.32c-.23-.09-.46-.19-.7-.27l1.57-3.84-4.61-2.21-.75-.36L30.17,24,27.3,22.62l-.75-.35-.74-.36-.91-.44-1.56-.75-.41-.2h0l-.72-.35L21.9,20,21.79,20l-.35-.17-.69-.33V32.8q-.39.29-.75.6c-.18.16-.37.32-.54.49l-.21.18V19.47l-.69.33-.35.17L18.1,20l-.28.13-.72.35h0l-.41.2-1.56.75-.91.44-.74.35-.75.36L9.83,24l-.75.36-.75.36L3.72,26.94,7.94,37.29c-.3-.06-.6-.13-.89-.21s-.62-.17-.92-.27a12.88,12.88,0,0,1-4.86-2.92.76.76,0,0,0-1.06,0A.75.75,0,0,0,.23,35c.17.17.34.32.52.48a14.46,14.46,0,0,0,6.1,3.13c.29.07.59.13.88.18s.57.1.86.13a15,15,0,0,0,1.77.11,14.63,14.63,0,0,0,8.89-3,8.69,8.69,0,0,0,.75-.61c.17-.14.33-.29.49-.45s.17-.14.26-.22a13.25,13.25,0,0,1,13.4-2.58c.23.08.46.18.69.28l.69.3A13,13,0,0,1,38.68,35l0,.05a.75.75,0,0,0,.52.21.72.72,0,0,0,.54-.23A.75.75,0,0,0,39.77,33.94Z"/><path class="cls-3" d="M26.38,35.31l-.15,0a.74.74,0,0,0-.48.94.75.75,0,0,0,.71.52.62.62,0,0,0,.23,0l.12,0a.75.75,0,0,0-.43-1.43Z"/><path class="cls-3" d="M35.65,36.69a10.3,10.3,0,0,0-1.37-.88l-.68-.32c-.23-.1-.46-.18-.7-.26a8.09,8.09,0,0,0-3.45-.43.74.74,0,0,0-.66.82.76.76,0,0,0,.82.67,6.8,6.8,0,0,1,2.73.32c.23.08.47.17.7.27s.45.21.67.33a7.56,7.56,0,0,1,1,.67.79.79,0,0,0,.46.15.75.75,0,0,0,.45-1.34Z"/><path class="cls-4" d="M9.83,22.34v-.87h1.81L12.7,21h0l.46-.23.25-.12.62-.29.12-.07.57-.27h-.57V17.1h2.88v1.76l.75-.36.74-.36v-1h2.88v1l.74.36.75.36V17.1h2.88V20h-.57l.57.27.12.07.62.29.25.12.46.23h0l1.06.51h1.81v.87l.75.36.75.36V16.35a.75.75,0,0,0-.75-.75H27.3V12.73h3.62a.74.74,0,0,0,.75-.75V7.61a.74.74,0,0,0-.75-.74H26.55a.74.74,0,0,0-.74.74v3.62H20.75V7.73h1.91a.75.75,0,0,0,0-1.5H20.75V5.35a2.24,2.24,0,1,0-1.5,0v.88h-1.9a.75.75,0,0,0,0,1.5h1.9v3.5h-5.8a.75.75,0,0,0-.75.75V15.6H9.08a.75.75,0,0,0-.75.75v6.71l.75-.36Zm17.47-14h2.87v2.87H27.3Zm0,8.74h2.87V20H27.3Zm-4.37-4.37h2.88V15.6H22.93ZM20,2.5a.75.75,0,0,1,.75.74A.76.76,0,0,1,20,4a.75.75,0,0,1-.74-.75A.74.74,0,0,1,20,2.5ZM18.56,12.73h2.88V15.6H18.56Zm-4.37,0h2.88V15.6H14.19ZM9.83,17.1H12.7V20H9.83Z"/></g></g></svg>